<svg xmlns="http://www.w3.org/2000/svg" viewBox="0 0 1200 380" width="1200" height="380"><defs><radialGradient id="g1" cx="18%" cy="0%" r="80%"><stop offset="0%" stop-color="#13201d"/><stop offset="100%" stop-color="#0e1318"/></radialGradient><marker id="h" markerWidth="9" markerHeight="9" refX="7" refY="4.5" orient="auto"><path d="M0,0 L9,4.5 L0,9 z" fill="#4ec9b0"/></marker></defs><rect x="1" y="1" width="1198" height="378" rx="18" fill="url(#g1)" stroke="#2a3744" stroke-width="1.5"/><text x="70" y="120" font-family="DejaVu Sans, sans-serif" font-size="84" fill="#d7e0e8" text-anchor="start" font-weight="bold">attr</text><text x="254.8" y="120" font-family="DejaVu Sans, sans-serif" font-size="84" fill="#e2b341" font-weight="bold">-eomt</text><rect x="72" y="142" width="250" height="4" rx="2" fill="#4ec9b0"/><text x="72" y="184" font-family="DejaVu Sans, sans-serif" font-size="18" fill="#8c9aa8" text-anchor="start" font-weight="normal">Encoder-only Mask Transformer + per-instance attribute heads</text><text x="72" y="214" font-family="DejaVu Sans Mono, monospace" font-size="13" fill="#5e6b78" text-anchor="start" font-weight="normal">instance segmentation / detection · attributes train for free on top</text><text x="72" y="300" font-family="DejaVu Sans Mono, monospace" font-size="13" fill="#4ec9b0" text-anchor="start" font-weight="bold">one query embedding</text><text x="72" y="320" font-family="DejaVu Sans Mono, monospace" font-size="13" fill="#e2b341" text-anchor="start" font-weight="bold">→ many independent labels</text><rect x="720" y="160.0" width="120" height="60" rx="8" fill="#1b232c" stroke="#5aa6f0" stroke-width="1.5"/><text x="780.0" y="194.0" font-family="DejaVu Sans Mono, monospace" font-size="12" fill="#5aa6f0" text-anchor="middle" font-weight="bold">encoder</text><path d="M840,190.0 H878" stroke="#4ec9b0" stroke-width="2" fill="none" marker-end="url(#h)"/><rect x="882" y="165.0" width="120" height="50" rx="8" fill="#10201c" stroke="#4ec9b0" stroke-width="1.5"/><text x="942.0" y="194.0" font-family="DejaVu Sans Mono, monospace" font-size="12" fill="#4ec9b0" text-anchor="middle" font-weight="bold">query_embed</text><path d="M1002,190.0 C1026,190.0 1026,114.0 1050,114.0" stroke="#4ec9b0" stroke-width="1.8" fill="none" marker-end="url(#h)"/><rect x="1054" y="98.0" width="128" height="32" rx="8" fill="#1b232c" stroke="#5aa6f0" stroke-width="1.5"/><text x="1118.0" y="118.0" font-family="DejaVu Sans Mono, monospace" font-size="12" fill="#5aa6f0" text-anchor="middle" font-weight="bold">class</text><path d="M1002,190.0 C1026,190.0 1026,162.0 1050,162.0" stroke="#4ec9b0" stroke-width="1.8" fill="none" marker-end="url(#h)"/><rect x="1054" y="146.0" width="128" height="32" rx="8" fill="#1b232c" stroke="#5aa6f0" stroke-width="1.5"/><text x="1118.0" y="166.0" font-family="DejaVu Sans Mono, monospace" font-size="12" fill="#5aa6f0" text-anchor="middle" font-weight="bold">mask/box</text><path d="M1002,190.0 C1026,190.0 1026,210.0 1050,210.0" stroke="#4ec9b0" stroke-width="1.8" fill="none" marker-end="url(#h)"/><rect x="1054" y="194.0" width="128" height="32" rx="8" fill="#1b232c" stroke="#e2b341" stroke-width="1.5"/><text x="1118.0" y="214.0" font-family="DejaVu Sans Mono, monospace" font-size="12" fill="#e2b341" text-anchor="middle" font-weight="bold">attribute</text><path d="M1002,190.0 C1026,190.0 1026,258.0 1050,258.0" stroke="#4ec9b0" stroke-width="1.8" fill="none" marker-end="url(#h)"/><rect x="1054" y="242.0" width="128" height="32" rx="8" fill="#1b232c" stroke="#e2b341" stroke-width="1.5"/><text x="1118.0" y="262.0" font-family="DejaVu Sans Mono, monospace" font-size="12" fill="#e2b341" text-anchor="middle" font-weight="bold">attribute</text></svg>