<svg xmlns="http://www.w3.org/2000/svg" viewBox="0 0 940 470" width="940" height="470"><rect x="1" y="1" width="938" height="468" rx="16" fill="#0e1318" stroke="#2a3744" stroke-width="1.5"/><text x="32" y="46" font-family="DejaVu Sans, sans-serif" font-size="23" fill="#d7e0e8" text-anchor="start" font-weight="bold">attr-eomt</text><text x="33" y="66" font-family="DejaVu Sans Mono, monospace" font-size="12" fill="#8c9aa8" text-anchor="start" font-weight="normal">architecture · the heads tap one shared embedding</text><circle cx="525" cy="42" r="4.5" fill="#4ec9b0"/><text x="536" y="46" font-family="DejaVu Sans Mono, monospace" font-size="11" fill="#8c9aa8">shared embedding</text><circle cx="659.6" cy="42" r="4.5" fill="#5aa6f0"/><text x="670.6" y="46" font-family="DejaVu Sans Mono, monospace" font-size="11" fill="#8c9aa8">primary head</text><circle cx="767.8" cy="42" r="4.5" fill="#e2b341"/><text x="778.8" y="46" font-family="DejaVu Sans Mono, monospace" font-size="11" fill="#8c9aa8">attribute head</text><defs><marker id="a" markerWidth="9" markerHeight="9" refX="7" refY="4.5" orient="auto"><path d="M0,0 L9,4.5 L0,9 z" fill="#5e6b78"/></marker><marker id="aq" markerWidth="9" markerHeight="9" refX="7" refY="4.5" orient="auto"><path d="M0,0 L9,4.5 L0,9 z" fill="#4ec9b0"/></marker></defs><rect x="34" y="220" width="104" height="60" rx="9" fill="#1b232c" stroke="#2a3744" stroke-width="1.4" /><text x="86" y="248" font-family="DejaVu Sans Mono, monospace" font-size="13" fill="#d7e0e8" text-anchor="middle" font-weight="normal">image</text><text x="86" y="266" font-family="DejaVu Sans Mono, monospace" font-size="10.5" fill="#5e6b78" text-anchor="middle" font-weight="normal">644²</text><path d="M138,250 H176" stroke="#5e6b78" stroke-width="1.6" fill="none" marker-end="url(#a)"/><rect x="180" y="188" width="178" height="124" rx="9" fill="#1b232c" stroke="#5aa6f0" stroke-width="1.4" /><text x="269" y="224" font-family="DejaVu Sans, sans-serif" font-size="14.5" fill="#5aa6f0" text-anchor="middle" font-weight="bold">DINOv2 ViT</text><text x="269" y="244" font-family="DejaVu Sans Mono, monospace" font-size="11" fill="#5e6b78" text-anchor="middle" font-weight="normal">last blocks +</text><text x="269" y="260" font-family="DejaVu Sans Mono, monospace" font-size="11" fill="#5e6b78" text-anchor="middle" font-weight="normal">learnable queries</text><text x="269" y="286" font-family="DejaVu Sans Mono, monospace" font-size="11" fill="#8c9aa8" text-anchor="middle" font-weight="normal">NMS-free</text><path d="M358,250 H426" stroke="#5e6b78" stroke-width="1.6" fill="none" marker-end="url(#a)"/><rect x="430" y="221" width="150" height="58" rx="9" fill="#10201c" stroke="#4ec9b0" stroke-width="1.8" /><text x="505" y="246" font-family="DejaVu Sans Mono, monospace" font-size="13.5" fill="#4ec9b0" text-anchor="middle" font-weight="bold">query_embed</text><text x="505" y="265" font-family="DejaVu Sans Mono, monospace" font-size="10.5" fill="#5e6b78" text-anchor="middle" font-weight="normal">[B, Q, hidden]</text><text x="505" y="204" font-family="DejaVu Sans Mono, monospace" font-size="11" fill="#8c9aa8" text-anchor="middle" font-weight="normal">▲ forward hook on class_predictor</text><path d="M580,205 C638,205 638,94 704,94" stroke="#4ec9b0" stroke-width="2.1" fill="none" marker-end="url(#aq)" /><rect x="708" y="70" width="200" height="48" rx="9" fill="#1b232c" stroke="#5aa6f0" stroke-width="1.4" /><text x="808.0" y="91" font-family="DejaVu Sans Mono, monospace" font-size="12.5" fill="#5aa6f0" text-anchor="middle" font-weight="normal">class_predictor</text><text x="808.0" y="107" font-family="DejaVu Sans Mono, monospace" font-size="10.5" fill="#5e6b78" text-anchor="middle" font-weight="normal">primary class · nc+1</text><path d="M580,218 C638,218 638,164 704,164" stroke="#4ec9b0" stroke-width="2.1" fill="none" marker-end="url(#aq)" /><rect x="708" y="140" width="200" height="48" rx="9" fill="#1b232c" stroke="#5aa6f0" stroke-width="1.4" /><text x="808.0" y="161" font-family="DejaVu Sans Mono, monospace" font-size="12.5" fill="#5aa6f0" text-anchor="middle" font-weight="normal">mask / box head</text><text x="808.0" y="177" font-family="DejaVu Sans Mono, monospace" font-size="10.5" fill="#5e6b78" text-anchor="middle" font-weight="normal">geometry</text><path d="M580,228 C638,228 638,254 704,254" stroke="#4ec9b0" stroke-width="2.1" fill="none" marker-end="url(#aq)" /><rect x="708" y="230" width="200" height="48" rx="9" fill="#1b232c" stroke="#e2b341" stroke-width="1.4" /><text x="808.0" y="251" font-family="DejaVu Sans Mono, monospace" font-size="12.5" fill="#e2b341" text-anchor="middle" font-weight="normal">aux · "ripeness"</text><text x="808.0" y="267" font-family="DejaVu Sans Mono, monospace" font-size="10.5" fill="#5e6b78" text-anchor="middle" font-weight="normal">3 classes</text><path d="M580,236 C638,236 638,324 704,324" stroke="#4ec9b0" stroke-width="2.1" fill="none" marker-end="url(#aq)" /><rect x="708" y="300" width="200" height="48" rx="9" fill="#1b232c" stroke="#e2b341" stroke-width="1.4" /><text x="808.0" y="321" font-family="DejaVu Sans Mono, monospace" font-size="12.5" fill="#e2b341" text-anchor="middle" font-weight="normal">aux · "grade"</text><text x="808.0" y="337" font-family="DejaVu Sans Mono, monospace" font-size="10.5" fill="#5e6b78" text-anchor="middle" font-weight="normal">2 classes</text><path d="M580,243 C638,243 638,396 704,396" stroke="#4ec9b0" stroke-width="2.1" fill="none" marker-end="url(#aq)" stroke-dasharray="3 4"/><rect x="708" y="372" width="200" height="48" rx="9" fill="#1b232c" stroke="#5e6b78" stroke-width="1.4" stroke-dasharray="4 4"/><text x="808.0" y="393" font-family="DejaVu Sans Mono, monospace" font-size="12.5" fill="#8c9aa8" text-anchor="middle" font-weight="normal">… as many as data defines</text><text x="470.0" y="444" font-family="DejaVu Sans Mono, monospace" font-size="11.5" fill="#5e6b78" text-anchor="middle" font-weight="normal">teal = the single per-query embedding · every head is a small classifier on top of it</text></svg>